-
 
http://www.Speed. Cd       the fast  and The Hottest Private Tracker on the net 
http://www.Speed. Cd

Please Seed back to make the speed Faster!!
 ............ NFO .............
-
 
http://www.Speed. Cd                                                                                                     
       
     
     
       
       
     
     
                                         
                                         
                EXVID                    
                                         
         
                                         
         Filled the Archives             
                                         
         
                                         
                With:                    
                                         
         
                                         
                                    
     E240                           
                                    
     SP               (C) 2009      
                                         
     
     
     
                                                                                  
                                                                                   
                 To.Each.His.Own.1946.DVDRip.XviD-EXViD                             
                                                                                   
                                                                                  
     
                                                                                               
EXViD aims to iNTERNAL those releases which have been lost in the archives.
EXViD aims to PRE non-internal releases which have poor sources and are likely skipped by others. 
http://www.imdb.com/title/tt0039040/
Subtitles: None
Date: 2013.04

Director: Mitchell Leisen

Genre: Drama | Romance

Plot:
An unwed mother, forced to give up her child to avoid scandal, follows her son's life from
afar even as she prospers in business.

Cast:
Olivia de Havilland	 ...	Miss Josephine 'Jody' Norris (as Olivia De Havilland)
Mary Anderson	 ...	Corinne Piersen
Roland Culver	 ...	Lord Desham
Phillip Terry	 ...	Alex Piersen
Bill Goodwin	 ...	Mac Tilton
Virginia Welles	 ...	Liz Lorimer
Victoria Horne	 ...	Nurse Daisy Gingras
Griff Barnett	 ...	Daniel Norris
Alma Macrorie	 ...	Belle Ingram
Billy Ward	 ...	Gregory - Younger (as Bill Ward)
Frank Faylen	 ...	Babe
Willard Robertson	 ...	Dr. Hunt
Arthur Loft	 ...	Bernadock Clinton
Virginia Farmer	 ...	Mrs. Cora Clinton
Doris Lloyd	 ...	Miss Pringle

Stats:
Format                           : AVI
Format/Info                      : Audio Video Interleave
File size                        : 1.37 GiB
Duration                         : 1h 57mn
Overall bit rate                 : 1 669 Kbps
Writing application              : Nandub v1.0rc2
Writing library                  : Nandub build 1852/release

Video
ID                               : 0
Format                           : MPEG-4 Visual
Format profile                   : Advanced Simple@L5
Format settings, BVOP            : 2
Format settings, QPel            : No
Format settings, GMC             : No warppoints
Format settings, Matrix          : Default (H.263)
Codec ID                         : XVID
Codec ID/Hint                    : XviD
Duration                         : 1h 57mn
Bit rate                         : 1 586 Kbps
Width                            : 512 pixels
Height                           : 384 pixels
Display aspect ratio             : 4:3
Frame rate                       : 25.000 fps
Color space                      : YUV
Chroma subsampling               : 4:2:0
Bit depth                        : 8 bits
Scan type                        : Progressive
Compression mode                 : Lossy
Bits/(Pixel*Frame)               : 0.323
Stream size                      : 1.30 GiB (95%)
Writing library                  : XviD 64

Audio
ID                               : 1
Format                           : MPEG Audio
Format version                   : Version 1
Format profile                   : Layer 3
Codec ID                         : 55
Codec ID/Hint                    : MP3
Duration                         : 1h 57mn
Bit rate mode                    : Variable
Bit rate                         : 69.9 Kbps
Nominal bit rate                 : 80.0 Kbps
Channel(s)                       : 1 channel
Sampling rate                    : 48.0 KHz
Compression mode                 : Lossy
Stream size                      : 58.6 MiB (4%)
Alignment                        : Aligned on interleaves
Interleave, duration             : 24 ms (0.60 video frame)
Interleave, preload duration     : 252 ms
Writing library                  : LAME3.98r
Encoding settings                : -m m -V 4 -q 3 -lowpass 20.3 --abr 80




Release notes:
enjoy!

Looking for:
75TB+ Archives
DUTCH/FLEMiSH Archives
                                                                                                    
Greets: CRBS EPiSODE FiCO FLS iLS KLASSiGER LiPSYNC MADE NODLABS RUNNER SPRiNTER      
   

                                                                    ASCII DONE BY XX^NFO 2oo9